<svg xmlns="http://www.w3.org/2000/svg" width="356" height="409">
  <g fill="none" fill-rule="evenodd">
    <g stroke="#949EA1" stroke-width="4" transform="translate(30 32)">
      <circle cx="90" cy="133" r="90" stroke-opacity=".8"/>
      <circle cx="143" cy="90" r="90" stroke-opacity=".3"/>
      <circle cx="206" cy="133" r="90" stroke-opacity=".8"/>
      <circle cx="143" cy="176" r="90" stroke-opacity=".3"/>
      <path fill="#39B6DB" stroke-opacity=".8" d="M64 133a90 90 0 0 1 158 0 90 90 0 0 1-158 0z"/>
      <path fill="#80DCF7" stroke-opacity=".8" d="M64 219.4A90 90 0 0 0 169 90 90 90 0 1 1 64 219.4z"/>
      <path fill="#80DCF7" stroke-opacity=".8" d="M128.5 178.8a90 90 0 1 1 92-134.6 90 90 0 0 0-92 134.7z"/>
    </g>
    <path fill="#AEAEAE" d="M172.2 314.4h5.2c1 0 2 .2 3 .5a7.4 7.4 0 0 1 5.3 7.3 8.5 8.5 0 0 1-.8 3.4 7.4 7.4 0 0 1-4.6 4c-1 .2-2 .4-2.9.4h-5.2v-15.6zm1.6 14.2h3.2a7 7 0 0 0 3-.6 5.9 5.9 0 0 0 3.5-3.5 6.7 6.7 0 0 0 0-4.6 5.9 5.9 0 0 0-3.5-3.5 7 7 0 0 0-3-.6h-3.2v12.8zm181.5-160.1a6.5 6.5 0 0 1-4 2.7l-1.9.2c-1.1 0-2.2-.2-3.2-.6a7.7 7.7 0 0 1-4.3-4.3c-.4-1-.6-2.1-.6-3.3 0-1.2.2-2.3.6-3.3a7.8 7.8 0 0 1 7.5-4.9 8 8 0 0 1 4.6 1.5l1 1-1.3 1a4.4 4.4 0 0 0-1.6-1.4 6 6 0 0 0-2.6-.7c-1 0-2 .2-2.8.6a6.1 6.1 0 0 0-3.3 3.6 7.7 7.7 0 0 0 1.3 7.4 6.1 6.1 0 0 0 4.8 2c.8 0 1.7-.2 2.5-.5a5 5 0 0 0 2-1.8l1.3.8zM174 .4h4.7c.6 0 1.2 0 1.8.2a3.7 3.7 0 0 1 2.8 1.9c.3.5.4 1.1.4 2a3 3 0 0 1-.7 2c-.5.7-1.2 1-2 1.3a4 4 0 0 1 2.5 1.2c.7.6 1 1.5 1 2.7a3.9 3.9 0 0 1-1.6 3.1c-.5.4-1 .7-1.8.9-.7.2-1.5.3-2.4.3H174V.4zm1.7 6.8h4.3l1-.5a2.4 2.4 0 0 0 1.1-2.2c0-.5 0-.9-.3-1.2-.1-.4-.4-.7-.8-.9l-1.1-.5a7 7 0 0 0-1.5-.1h-2.7v5.4zm0 7.4h2.9a8 8 0 0 0 1.6-.1 3 3 0 0 0 1.4-.6c.4-.2.7-.5 1-.9.2-.4.3-.9.3-1.4a3 3 0 0 0-1-2.3 5 5 0 0 0-3-.8h-3.2v6.1zM2.3 171H.5l6.8-15.6h1.5l6.7 15.6h-1.8l-1.7-4H4l-1.7 4zm2.2-5.5h7L8 157.2l-3.5 8.3z"/>
    <path fill="#39B6DB" d="M37.3 367a8 8 0 0 0-3-2.5 8.8 8.8 0 0 0-5.6-.7c-.7 0-1.2.3-1.7.6s-1 .7-1.3 1.2c-.4.5-.5 1-.5 1.8 0 .7.1 1.2.4 1.7.3.4.6.8 1.2 1.1l1.8.9 2.5.8 4 1.5c1.4.5 2.7 1.2 3.8 2a9.3 9.3 0 0 1 4 8 11.4 11.4 0 0 1-4.5 9.7 14 14 0 0 1-4.6 2.3 22.5 22.5 0 0 1-13.4-.7 18 18 0 0 1-6.4-4l6-6.2a12 12 0 0 0 3.7 2.9 10 10 0 0 0 6.6 1 5 5 0 0 0 1.7-.8 3 3 0 0 0 1.2-1.3 4 4 0 0 0 .4-1.9 3 3 0 0 0-.5-1.8c-.4-.5-1-1-1.6-1.4a127.6 127.6 0 0 0-5.9-2.2c-1.2-.4-2.4-1-3.5-1.5a12 12 0 0 1-3.2-2 9.6 9.6 0 0 1-3-7.5 10.8 10.8 0 0 1 4.7-9.2c1.4-1 3-1.7 4.7-2.1a19.8 19.8 0 0 1 17.9 4l-5.9 6.2zm27.5 8v10.2c0 1.3.3 2.2.8 2.8.5.7 1.3 1 2.6 1l1.4-.1c.5 0 .9-.2 1.2-.3l.1 6.4a14.6 14.6 0 0 1-5.1.9c-1.8 0-3.3-.3-4.6-.7a7 7 0 0 1-4.5-5c-.3-1.2-.5-2.5-.5-4V375H52v-6.7h4.3v-7h8.6v7h6.4v6.7h-6.4zm35 .5a6.9 6.9 0 0 0-2.3-.2c-1.2 0-2.2.2-3 .6-.8.5-1.5 1-2 1.6a6.7 6.7 0 0 0-1.4 3.9v13.8h-8.8v-26.9H91v3.9a8.7 8.7 0 0 1 3-3.3 7.5 7.5 0 0 1 4.4-1.3 10 10 0 0 1 1.8.2l-.3 7.7zm28.6 19.7v-3.7a7.6 7.6 0 0 1-3.2 3.1l-2.3 1c-.9.2-1.8.4-2.7.4-1.8 0-3.3-.4-4.6-1a8.8 8.8 0 0 1-3-2.5c-.7-1-1.3-2.2-1.6-3.5a16 16 0 0 1-.6-4v-16.7h9V383l.1 2.2.6 1.8c.3.5.7 1 1.2 1.3.6.3 1.2.4 2 .4a4 4 0 0 0 3.6-1.7 6.9 6.9 0 0 0 1.2-4v-14.6h8.9v26.9h-8.6zm41-18.2a6.3 6.3 0 0 0-4.7-2.2c-1 0-1.8.2-2.6.6a7 7 0 0 0-1.9 1.5c-.5.7-1 1.4-1.3 2.2-.3.8-.4 1.7-.4 2.7 0 .9.1 1.8.4 2.6.3.8.7 1.6 1.3 2.2a6 6 0 0 0 4.6 2c.9 0 1.8-.2 2.7-.5a4 4 0 0 0 2.1-1.5l5 6c-1.2 1-2.6 2-4.4 2.5a17.7 17.7 0 0 1-11.6 0 13.3 13.3 0 0 1-8-7.3c-.7-1.8-1-3.8-1-6s.3-4.2 1-6a13.3 13.3 0 0 1 8-7.4 17.1 17.1 0 0 1 14 1.2l2 1.5-5.2 6zm25.2-2v10.2c0 1.3.3 2.2.8 2.8.5.7 1.3 1 2.6 1l1.4-.1 1.2-.3v6.4a14.6 14.6 0 0 1-5 .9c-1.8 0-3.4-.3-4.6-.7a7 7 0 0 1-4.5-5c-.3-1.2-.5-2.5-.5-4V375h-4.3v-6.7h4.2v-7h8.7v7h6.4v6.7h-6.4zm32.7 24.3l-1.8 3.7c-.7 1.1-1.5 2-2.4 2.8-1 .8-2 1.4-3.2 1.8-1.3.4-2.7.6-4.4.6a21.1 21.1 0 0 1-4.9-.6l1-7.5a9.8 9.8 0 0 0 2.8.5c1.4 0 2.4-.3 3-1a9 9 0 0 0 1.6-2.6l.8-2.2-11.2-26.5h9.8l6 17.3h.2l5.3-17.3h9.4l-12 31zm52.3-17.7a17 17 0 0 1-.8 5.4c-.6 1.8-1.4 3.3-2.5 4.6a12 12 0 0 1-14.1 3.3 8.4 8.4 0 0 1-3.5-2.7h-.1v16h-8.9v-39.9h8.5v3.3h.1a11 11 0 0 1 8.6-4 12.1 12.1 0 0 1 11.9 8.7c.6 1.7.8 3.5.8 5.3zm-8.5 0c0-.8-.2-1.7-.4-2.5-.3-.8-.7-1.5-1.2-2.2a6 6 0 0 0-4.8-2.1 6 6 0 0 0-4.7 2.2 7.2 7.2 0 0 0-1.7 4.7 7.3 7.3 0 0 0 1.7 4.8c.6.6 1.3 1.1 2 1.5a6 6 0 0 0 2.7.6 5.9 5.9 0 0 0 4.7-2.2c.6-.6 1-1.3 1.3-2.2.2-.8.4-1.7.4-2.6zm39.6-3c0-1.3-.4-2.5-1.3-3.5s-2.2-1.6-4-1.6a6 6 0 0 0-2.3.5c-.8.2-1.4.6-2 1a6.6 6.6 0 0 0-1.8 3.7h11.4zm8.2 3.5v2h-19.6c.1.8.3 1.5.7 2.1a7 7 0 0 0 5.8 3c1.4 0 2.6-.2 3.5-.7a7 7 0 0 0 2.4-2l6.2 3.8a13 13 0 0 1-5 4.3c-2.1 1-4.5 1.5-7.2 1.5-2 0-4-.3-5.8-1a12.8 12.8 0 0 1-8-7.2 15 15 0 0 1-1-6 13.5 13.5 0 0 1 8.8-13.4 15.7 15.7 0 0 1 11.1 0c1.7.6 3.1 1.6 4.3 2.8 1.2 1.3 2.1 2.8 2.8 4.6.7 1.8 1 3.9 1 6.2zm22.6 8.4a5.3 5.3 0 0 1-5.4 5.3 5.6 5.6 0 0 1-5-3.2 5 5 0 0 1-.5-2c0-.8.1-1.5.4-2.1a5.8 5.8 0 0 1 3-2.9c.6-.3 1.3-.4 2-.4a5.3 5.3 0 0 1 5.5 5.3z"/>
  </g>
</svg>
